<svg width="24" height="21" viewBox="0 0 24 21" fill="none" xmlns="http://www.w3.org/2000/svg">
<path d="M23.8764 16.4867L19.9144 20.626C19.8277 20.7163 19.7236 20.7879 19.6084 20.8366C19.4922 20.8857 19.3674 20.9109 19.2414 20.9108H0.459866C0.370533 20.9109 0.283034 20.8855 0.207666 20.8375C0.133154 20.7901 0.0741858 20.7219 0.0380661 20.6413C0.00241488 20.5615 -0.00852166 20.4729 0.00666613 20.3868C0.0220617 20.3003 0.062781 20.2203 0.123666 20.157L4.08857 16.0177C4.17499 15.9277 4.27883 15.8561 4.39377 15.8075C4.50949 15.7584 4.63387 15.7331 4.75957 15.7329H23.54C23.6293 15.7328 23.7169 15.7583 23.7923 15.8063C23.8667 15.8537 23.9257 15.9218 23.962 16.0023C23.9976 16.0822 24.0085 16.1709 23.9933 16.257C23.9779 16.3434 23.9372 16.4234 23.8764 16.4867ZM19.9144 8.1512C19.8277 8.06093 19.7236 7.98927 19.6084 7.9406C19.4922 7.89153 19.3674 7.8663 19.2414 7.8664H0.459866C0.370522 7.86633 0.283019 7.8918 0.207666 7.9398C0.133169 7.98717 0.0742022 8.05535 0.0380661 8.1359C0.00240076 8.21572 -0.00853594 8.3044 0.00666613 8.3905C0.022092 8.47695 0.0628084 8.55689 0.123666 8.6202L4.08857 12.7596C4.175 12.8496 4.27883 12.9212 4.39377 12.9698C4.50917 13.0188 4.63377 13.0442 4.75957 13.0444H23.54C23.6293 13.0445 23.7169 13.019 23.7923 12.971C23.8667 12.9236 23.9257 12.8554 23.962 12.7749C23.9976 12.6951 24.0085 12.6064 23.9933 12.5203C23.9778 12.4339 23.9372 12.3539 23.8764 12.2906L19.9144 8.1512ZM0.459966 5.1779H19.2415C19.3675 5.178 19.4923 5.15277 19.6085 5.1037C19.7237 5.05503 19.8278 4.98337 19.9145 4.8931L23.8765 0.7537C23.9373 0.690382 23.978 0.610449 23.9935 0.524C24.0087 0.437902 23.9977 0.349228 23.9621 0.2694C23.9258 0.188929 23.8668 0.120806 23.7924 0.0734002C23.717 0.0253933 23.6294 -7.29853e-05 23.5401 1.57113e-07H4.75957C4.63388 0.000155157 4.5095 0.0254869 4.39377 0.0745001C4.27883 0.123147 4.17499 0.194664 4.08857 0.2847L0.124566 4.4241C0.0637699 4.48736 0.0230898 4.56723 0.00766613 4.6536C-0.00756379 4.73961 0.00330262 4.82822 0.0388661 4.908C0.0749059 4.98846 0.133728 5.0566 0.208066 5.104C0.283255 5.1521 0.37071 5.17773 0.459966 5.1779Z" fill="#CBA6F7"/>
</svg>
